<svg width="959" height="340" viewBox="0 0 959 340" fill="none" xmlns="http://www.w3.org/2000/svg">
<path d="M189.2 150.5C189.2 177.286 167.709 199 141.2 199H122C95.4904 199 74 177.286 74 150.5C74 123.714 95.4904 102 122 102H126.8M150.8 150.5C150.8 123.714 172.291 102 198.8 102H218C244.509 102 266 123.714 266 150.5C266 177.286 244.509 199 218 199H213.2" stroke="white" stroke-width="24" stroke-linecap="round"/>
<path d="M197.391 324.498L205.964 310.016L185.55 297.932L176.977 312.416L197.391 324.498ZM134.036 310.016L142.609 324.498L163.021 312.416L154.449 297.932L134.036 310.016ZM176.977 312.416C173.93 317.565 166.07 317.565 163.021 312.416L142.609 324.498C154.842 345.167 185.158 345.167 197.391 324.498L176.977 312.416ZM146.279 23.721H193.721V3.25845e-06H146.279V23.721ZM316.279 146.279V162.093H340V146.279H316.279ZM23.7209 162.093V146.279H3.25838e-06V162.093H23.7209ZM3.25838e-06 162.093C3.25838e-06 180.352 -0.00648099 194.64 0.779789 206.164C1.57349 217.795 3.21387 227.475 6.92161 236.425L28.8369 227.348C26.5259 221.769 25.157 214.972 24.4458 204.549C23.7274 194.02 23.7209 180.676 23.7209 162.093H3.25838e-06ZM103.621 268.705C83.7675 268.362 73.3646 267.1 65.2103 263.722L56.1327 285.637C68.8625 290.909 83.3614 292.08 103.212 292.421L103.621 268.705ZM6.92161 236.425C16.1505 258.706 33.8523 276.408 56.1327 285.637L65.2103 263.722C48.7421 256.9 35.6583 243.817 28.8369 227.348L6.92161 236.425ZM316.279 162.093C316.279 180.676 316.273 194.02 315.555 204.549C314.843 214.972 313.474 221.769 311.163 227.348L333.078 236.425C336.787 227.475 338.427 217.795 339.22 206.164C340.006 194.64 340 180.352 340 162.093H316.279ZM236.787 292.421C256.638 292.08 271.138 290.909 283.867 285.637L274.79 263.722C266.636 267.1 256.232 268.362 236.379 268.705L236.787 292.421ZM311.163 227.348C304.341 243.817 291.258 256.9 274.79 263.722L283.867 285.637C306.147 276.408 323.849 258.706 333.078 236.425L311.163 227.348ZM193.721 23.721C219.833 23.721 238.585 23.7335 253.211 25.1242C267.662 26.4981 276.856 29.133 284.186 33.625L296.581 13.3995C284.896 6.23973 271.643 3.04878 255.457 1.50976C239.447 -0.0124904 219.374 3.25845e-06 193.721 3.25845e-06V23.721ZM340 146.279C340 120.626 340.013 100.553 338.49 84.5433C336.951 68.3569 333.76 55.1031 326.601 43.4194L306.375 55.8136C310.868 63.1438 313.502 72.3386 314.876 86.7886C316.266 101.415 316.279 120.167 316.279 146.279H340ZM284.186 33.625C293.23 39.1668 300.834 46.7702 306.375 55.8136L326.601 43.4194C319.103 31.1842 308.816 20.8972 296.581 13.3995L284.186 33.625ZM146.279 3.25845e-06C120.626 3.25845e-06 100.553 -0.0124904 84.5431 1.50976C68.3568 3.04878 55.1029 6.23973 43.4193 13.3995L55.8134 33.625C63.1437 29.133 72.3384 26.4981 86.7884 25.1242C101.415 23.7335 120.166 23.721 146.279 23.721V3.25845e-06ZM23.7209 146.279C23.7209 120.167 23.7334 101.415 25.1241 86.7886C26.498 72.3386 29.1329 63.1438 33.6249 55.8136L13.3995 43.4194C6.23972 55.1031 3.04877 68.3569 1.50976 84.5433C-0.0124903 100.553 3.25838e-06 120.626 3.25838e-06 146.279H23.7209ZM43.4193 13.3995C31.1842 20.8972 20.8972 31.1842 13.3995 43.4194L33.6249 55.8136C39.1667 46.7702 46.7701 39.1668 55.8134 33.625L43.4193 13.3995ZM154.449 297.932C151.238 292.508 148.42 287.721 145.68 283.961C142.792 280.001 139.482 276.435 134.891 273.764L122.965 294.27C123.715 294.705 124.736 295.5 126.509 297.932C128.429 300.567 130.597 304.206 134.036 310.016L154.449 297.932ZM103.212 292.421C110.156 292.541 114.554 292.63 117.907 293C121.04 293.348 122.254 293.856 122.965 294.27L134.891 273.764C130.261 271.071 125.444 269.969 120.518 269.423C115.812 268.903 110.124 268.817 103.621 268.705L103.212 292.421ZM205.964 310.016C209.402 304.206 211.57 300.567 213.49 297.932C215.263 295.5 216.284 294.705 217.034 294.27L205.109 273.764C200.518 276.435 197.206 280.001 194.32 283.961C191.58 287.721 188.762 292.508 185.55 297.932L205.964 310.016ZM236.379 268.705C229.875 268.817 224.188 268.903 219.482 269.423C214.556 269.969 209.739 271.071 205.109 273.764L217.034 294.27C217.746 293.856 218.96 293.348 222.093 293C225.445 292.63 229.843 292.541 236.787 292.421L236.379 268.705Z" fill="white"/>
<path d="M464.621 60.335V266.5H425.5V60.335H464.621ZM539.513 122.397V266.5H500.391V122.397H539.513ZM648.191 119.336C663.416 119.336 675.261 124.482 683.271 133.957C691.248 143.394 695.26 156.934 695.26 173.437V266.5H655.86V181.229C655.86 172.896 654.217 166.961 651.184 163.131C648.204 159.369 643.69 157.403 637.354 157.403C630.453 157.403 624.648 160.251 620.526 165.713C616.372 171.218 613.848 179.491 613.848 190.413V266.5H575.004V122.397H608.637L608.829 123.673L610.975 137.857C618.966 125.568 631.522 119.336 648.191 119.336ZM767.991 60.335V176.305L806.396 123.021L806.846 122.397H853.559L851.911 124.757L811.064 183.242L859.195 264.233L860.542 266.5H815.938L815.501 265.778L783.837 213.637L767.991 233.791V266.5H728.869V60.335H767.991ZM957.5 121.006V160.187H956C944.857 160.187 935.762 162.904 928.864 168.214C922.355 173.435 918.589 181.594 918.044 193.247V266.5H878.923V122.397H912.838L913.026 123.678L915.616 141.186C922.255 128.934 935.784 121.006 956 121.006H957.5ZM519.952 59.5C532.68 59.5002 543.402 69.5868 543.402 82.4297C543.402 95.5513 532.957 105.359 519.952 105.359C506.947 105.359 496.501 95.5515 496.501 82.4297C496.501 69.5988 506.934 59.5 519.952 59.5Z" fill="white" stroke="white" stroke-width="3"/>
</svg>
