<svg width="535" height="210" viewBox="0 0 535 210" fill="none" xmlns="http://www.w3.org/2000/svg">
<path d="M40.6211 2.33496V208.5H1.5V2.33496H40.6211ZM115.513 64.3975V208.5H76.3906V64.3975H115.513ZM224.191 61.3359C239.416 61.336 251.261 66.4823 259.271 75.957C267.248 85.394 271.26 98.9336 271.26 115.437V208.5H231.86V123.229C231.86 114.896 230.217 108.961 227.184 105.131C224.204 101.369 219.69 99.4033 213.354 99.4033C206.453 99.4034 200.648 102.251 196.526 107.713C192.372 113.218 189.848 121.491 189.848 132.413V208.5H151.004V64.3975H184.637L184.829 65.6729L186.975 79.8574C194.966 67.5676 207.522 61.3359 224.191 61.3359ZM343.991 2.33496V118.305L382.396 65.0205L382.846 64.3975H429.559L427.911 66.7568L387.064 125.242L435.195 206.233L436.542 208.5H391.938L391.501 207.778L359.837 155.637L343.991 175.791V208.5H304.869V2.33496H343.991ZM533.5 63.0059V102.187H532C520.857 102.187 511.762 104.904 504.864 110.214C498.355 115.435 494.589 123.594 494.044 135.247V208.5H454.923V64.3975H488.837L489.026 65.6777L491.616 83.1855C498.255 70.9342 511.784 63.0059 532 63.0059H533.5ZM95.9521 1.5C108.68 1.50022 119.402 11.5868 119.402 24.4297C119.402 37.5513 108.957 47.3592 95.9521 47.3594C82.9466 47.3594 72.501 37.5515 72.501 24.4297C72.501 11.5988 82.9337 1.5 95.9521 1.5Z" fill="white" stroke="white" stroke-width="3"/>
</svg>
