<svg width="924" height="234" viewBox="0 0 924 234" fill="none" xmlns="http://www.w3.org/2000/svg">
<path d="M295.295 183.909L306.825 157.131C319.283 166.429 335.833 171.264 352.197 171.264C364.284 171.264 371.909 166.615 371.909 159.549C371.723 139.838 299.572 155.272 299.014 105.808C298.829 80.7042 321.143 61.3649 352.755 61.3649C371.537 61.3649 390.318 66.0138 403.707 76.6132L392.921 103.948C380.648 96.1384 365.4 90.5597 350.896 90.5597C341.04 90.5597 334.532 95.2086 334.532 101.159C334.718 120.498 407.426 109.899 408.17 157.131C408.17 182.793 386.413 200.831 355.173 200.831C332.3 200.831 311.287 195.438 295.295 183.909ZM737.681 147.462C731.916 157.503 721.131 164.384 708.672 164.384C690.262 164.384 675.386 149.507 675.386 131.098C675.386 112.688 690.262 97.8119 708.672 97.8119C721.131 97.8119 731.916 104.692 737.681 114.734L769.479 97.0681C757.578 75.8693 734.705 61.3649 708.672 61.3649C670.179 61.3649 638.939 92.6052 638.939 131.098C638.939 169.59 670.179 200.831 708.672 200.831C734.891 200.831 757.578 186.512 769.479 165.127L737.681 147.462ZM424.162 3.53313H463.956V198.227H424.162V3.53313ZM785.099 3.53313V198.227H824.893V139.838L872.126 198.227H923.077L863.014 128.866L918.614 64.1542H869.894L824.893 117.895V3.53313H785.099ZM582.223 147.834C576.458 157.317 564.557 164.384 551.168 164.384C532.759 164.384 517.883 149.507 517.883 131.098C517.883 112.688 532.759 97.8119 551.168 97.8119C564.557 97.8119 576.458 105.25 582.223 114.92V147.834ZM582.223 64.1542V79.9603C575.714 68.989 559.536 61.3649 542.615 61.3649C507.655 61.3649 480.134 92.2333 480.134 130.912C480.134 169.59 507.655 200.831 542.615 200.831C559.536 200.831 575.714 193.206 582.223 182.235V198.041H622.017V64.1542H582.223Z" fill="white"/>
<path d="M49.2779 147.648C49.2779 161.222 38.3066 172.194 24.7319 172.194C11.1573 172.194 0.185962 161.222 0.185962 147.648C0.185962 134.073 11.1573 123.102 24.7319 123.102H49.2779V147.648ZM61.5509 147.648C61.5509 134.073 72.5222 123.102 86.0968 123.102C99.6715 123.102 110.643 134.073 110.643 147.648V209.013C110.643 222.587 99.6715 233.559 86.0968 233.559C72.5222 233.559 61.5509 222.587 61.5509 209.013V147.648Z" fill="#E01E5A"/>
<path d="M86.0968 49.0919C72.5222 49.0919 61.5509 38.1206 61.5509 24.546C61.5509 10.9713 72.5222 9.44138e-06 86.0968 9.44138e-06C99.6715 9.44138e-06 110.643 10.9713 110.643 24.546V49.0919H86.0968ZM86.0968 61.5509C99.6715 61.5509 110.643 72.5222 110.643 86.0968C110.643 99.6715 99.6715 110.643 86.0968 110.643H24.546C10.9713 110.643 0 99.6715 0 86.0968C0 72.5222 10.9713 61.5509 24.546 61.5509H86.0968Z" fill="#36C5F0"/>
<path d="M184.467 86.0968C184.467 72.5222 195.438 61.5509 209.013 61.5509C222.587 61.5509 233.559 72.5222 233.559 86.0968C233.559 99.6715 222.587 110.643 209.013 110.643H184.467V86.0968ZM172.194 86.0968C172.194 99.6715 161.222 110.643 147.648 110.643C134.073 110.643 123.102 99.6715 123.102 86.0968V24.546C123.102 10.9713 134.073 0 147.648 0C161.222 0 172.194 10.9713 172.194 24.546V86.0968Z" fill="#2EB67D"/>
<path d="M147.648 184.467C161.222 184.467 172.194 195.438 172.194 209.013C172.194 222.587 161.222 233.559 147.648 233.559C134.073 233.559 123.102 222.587 123.102 209.013V184.467H147.648ZM147.648 172.194C134.073 172.194 123.102 161.222 123.102 147.648C123.102 134.073 134.073 123.102 147.648 123.102H209.199C222.773 123.102 233.745 134.073 233.745 147.648C233.745 161.222 222.773 172.194 209.199 172.194H147.648Z" fill="#ECB22E"/>
</svg>
